<mxfile host="app.diagrams.net" modified="2024-01-11T16:42:24.065Z" agent="Mozilla/5.0 (Windows NT 10.0; Win64; x64) AppleWebKit/537.36 (KHTML, like Gecko) Chrome/118.0.0.0 YaBrowser/23.11.0.0 Safari/537.36" etag="9ZKfbiWOPyzmS6_OUIQ-" version="22.1.18" type="github">
  <diagram name="Страница — 1" id="qsabZyMixuR6BseSu_nm">
    <mxGraphModel dx="1945" dy="1031" grid="1" gridSize="10" guides="1" tooltips="1" connect="1" arrows="1" fold="1" page="1" pageScale="1" pageWidth="827" pageHeight="1169" math="0" shadow="0">
      <root>
        <mxCell id="0" />
        <mxCell id="1" parent="0" />
        <mxCell id="w7tnQ7XDSmEHpIKaVpb0-36" value="" style="rounded=0;whiteSpace=wrap;html=1;" vertex="1" parent="1">
          <mxGeometry x="960" y="100" width="340" height="430" as="geometry" />
        </mxCell>
        <mxCell id="w7tnQ7XDSmEHpIKaVpb0-1" value="" style="rounded=0;whiteSpace=wrap;html=1;" vertex="1" parent="1">
          <mxGeometry x="280" y="100" width="540" height="420" as="geometry" />
        </mxCell>
        <mxCell id="w7tnQ7XDSmEHpIKaVpb0-2" value="TelegramBotPackage" style="whiteSpace=wrap;html=1;" vertex="1" parent="1">
          <mxGeometry x="280" y="80" width="120" height="20" as="geometry" />
        </mxCell>
        <mxCell id="w7tnQ7XDSmEHpIKaVpb0-4" value="DataBasePackage" style="whiteSpace=wrap;html=1;" vertex="1" parent="1">
          <mxGeometry x="960" y="80" width="110" height="20" as="geometry" />
        </mxCell>
        <mxCell id="w7tnQ7XDSmEHpIKaVpb0-5" value="" style="rounded=0;whiteSpace=wrap;html=1;" vertex="1" parent="1">
          <mxGeometry x="419.5" y="600" width="261" height="170" as="geometry" />
        </mxCell>
        <mxCell id="w7tnQ7XDSmEHpIKaVpb0-6" value="UserPackage" style="whiteSpace=wrap;html=1;" vertex="1" parent="1">
          <mxGeometry x="419.5" y="580" width="111" height="20" as="geometry" />
        </mxCell>
        <mxCell id="w7tnQ7XDSmEHpIKaVpb0-14" value="Exercise" style="swimlane;" vertex="1" parent="1">
          <mxGeometry x="1125" y="140" width="140" height="100" as="geometry" />
        </mxCell>
        <mxCell id="w7tnQ7XDSmEHpIKaVpb0-15" value="id_exercise: int&lt;br&gt;id_course: int&lt;br&gt;exercise: text&lt;br&gt;answer: text" style="text;html=1;align=left;verticalAlign=middle;resizable=0;points=[];autosize=1;strokeColor=none;fillColor=none;" vertex="1" parent="w7tnQ7XDSmEHpIKaVpb0-14">
          <mxGeometry y="20" width="100" height="70" as="geometry" />
        </mxCell>
        <mxCell id="w7tnQ7XDSmEHpIKaVpb0-18" value="ProgLanguages" style="swimlane;" vertex="1" parent="w7tnQ7XDSmEHpIKaVpb0-14">
          <mxGeometry y="110" width="140" height="70" as="geometry" />
        </mxCell>
        <mxCell id="w7tnQ7XDSmEHpIKaVpb0-19" value="id_proglanguage: int&lt;br&gt;name: text" style="text;html=1;align=left;verticalAlign=middle;resizable=0;points=[];autosize=1;strokeColor=none;fillColor=none;" vertex="1" parent="w7tnQ7XDSmEHpIKaVpb0-18">
          <mxGeometry x="5" y="20" width="130" height="40" as="geometry" />
        </mxCell>
        <mxCell id="w7tnQ7XDSmEHpIKaVpb0-12" value="Courses" style="swimlane;" vertex="1" parent="w7tnQ7XDSmEHpIKaVpb0-18">
          <mxGeometry x="-145" y="-120" width="130" height="110" as="geometry">
            <mxRectangle x="500" y="360" width="90" height="30" as="alternateBounds" />
          </mxGeometry>
        </mxCell>
        <mxCell id="w7tnQ7XDSmEHpIKaVpb0-13" value="id_course: int&lt;br&gt;id_language: int&lt;br&gt;id_proglanguage: int&lt;br&gt;name: text&lt;br&gt;difficulty: text" style="text;html=1;align=left;verticalAlign=middle;resizable=0;points=[];autosize=1;strokeColor=none;fillColor=none;" vertex="1" parent="w7tnQ7XDSmEHpIKaVpb0-12">
          <mxGeometry y="20" width="130" height="90" as="geometry" />
        </mxCell>
        <mxCell id="w7tnQ7XDSmEHpIKaVpb0-16" value="Languages" style="swimlane;" vertex="1" parent="1">
          <mxGeometry x="985" y="250" width="125" height="60" as="geometry" />
        </mxCell>
        <mxCell id="w7tnQ7XDSmEHpIKaVpb0-17" value="id_language: int&lt;br&gt;name: text" style="text;html=1;align=left;verticalAlign=middle;resizable=0;points=[];autosize=1;strokeColor=none;fillColor=none;" vertex="1" parent="w7tnQ7XDSmEHpIKaVpb0-16">
          <mxGeometry y="20" width="110" height="40" as="geometry" />
        </mxCell>
        <mxCell id="w7tnQ7XDSmEHpIKaVpb0-20" value="Progress_status" style="swimlane;" vertex="1" parent="1">
          <mxGeometry x="980" y="320" width="130" height="90" as="geometry" />
        </mxCell>
        <mxCell id="w7tnQ7XDSmEHpIKaVpb0-21" value="id_status: int&lt;br&gt;id_user: int&lt;br&gt;id_exercise: int&lt;br&gt;status: text" style="text;html=1;align=left;verticalAlign=middle;resizable=0;points=[];autosize=1;strokeColor=none;fillColor=none;" vertex="1" parent="w7tnQ7XDSmEHpIKaVpb0-20">
          <mxGeometry x="5" y="20" width="100" height="70" as="geometry" />
        </mxCell>
        <mxCell id="w7tnQ7XDSmEHpIKaVpb0-22" value="TechnicalSupport" style="swimlane;" vertex="1" parent="1">
          <mxGeometry x="1125" y="327.5" width="140" height="75" as="geometry" />
        </mxCell>
        <mxCell id="w7tnQ7XDSmEHpIKaVpb0-23" value="id_appel: int&lt;br&gt;id_user: int&lt;br&gt;appel: text" style="text;html=1;align=left;verticalAlign=middle;resizable=0;points=[];autosize=1;strokeColor=none;fillColor=none;" vertex="1" parent="w7tnQ7XDSmEHpIKaVpb0-22">
          <mxGeometry x="5" y="17.5" width="90" height="60" as="geometry" />
        </mxCell>
        <mxCell id="w7tnQ7XDSmEHpIKaVpb0-24" value="Theory" style="swimlane;" vertex="1" parent="1">
          <mxGeometry x="980" y="420" width="140" height="80" as="geometry" />
        </mxCell>
        <mxCell id="w7tnQ7XDSmEHpIKaVpb0-25" value="id_theory: int&lt;br&gt;id_course: int&lt;br&gt;theory: text" style="text;html=1;align=left;verticalAlign=middle;resizable=0;points=[];autosize=1;strokeColor=none;fillColor=none;" vertex="1" parent="w7tnQ7XDSmEHpIKaVpb0-24">
          <mxGeometry x="5" y="20" width="90" height="60" as="geometry" />
        </mxCell>
        <mxCell id="w7tnQ7XDSmEHpIKaVpb0-26" value="Users" style="swimlane;" vertex="1" parent="1">
          <mxGeometry x="1135" y="420" width="130" height="90" as="geometry" />
        </mxCell>
        <mxCell id="w7tnQ7XDSmEHpIKaVpb0-27" value="id_user: int&lt;br&gt;nickname: text&lt;br&gt;id_language: int&lt;br&gt;use_techsup: int" style="text;html=1;align=left;verticalAlign=middle;resizable=0;points=[];autosize=1;strokeColor=none;fillColor=none;" vertex="1" parent="w7tnQ7XDSmEHpIKaVpb0-26">
          <mxGeometry x="5" y="20" width="110" height="70" as="geometry" />
        </mxCell>
        <mxCell id="w7tnQ7XDSmEHpIKaVpb0-32" value="User" style="swimlane;" vertex="1" parent="1">
          <mxGeometry x="485" y="640" width="130" height="90" as="geometry" />
        </mxCell>
        <mxCell id="w7tnQ7XDSmEHpIKaVpb0-33" value="id_user: long&lt;br&gt;nickname: string&lt;br&gt;id_language: int&lt;br&gt;use_techsup: int" style="text;html=1;align=center;verticalAlign=middle;resizable=0;points=[];autosize=1;strokeColor=none;fillColor=none;" vertex="1" parent="w7tnQ7XDSmEHpIKaVpb0-32">
          <mxGeometry x="10" y="20" width="110" height="70" as="geometry" />
        </mxCell>
        <mxCell id="w7tnQ7XDSmEHpIKaVpb0-34" value="TelegramBotProgEd" style="swimlane;" vertex="1" parent="1">
          <mxGeometry x="310" y="152.5" width="480" height="317.5" as="geometry" />
        </mxCell>
        <mxCell id="w7tnQ7XDSmEHpIKaVpb0-35" value="ChangeLanguage(string id_user, int id_language):void&lt;br&gt;languageUser(long id_user): int&lt;br&gt;TSUser(long id_user): int&lt;br&gt;ChangeTS(long id_user, int use_techsup): void&lt;br&gt;TechSup(string str, long user_id, int language):string&lt;br&gt;IsUserExists(long id_user): bool&lt;br&gt;GetCountExercise(): int&lt;br&gt;AddUser(long id_user, string nickname): void&lt;br&gt;ShowTheory(int id_theory): string&lt;br&gt;ShowTask(int id_exercise): List&amp;lt;(string, string, int)&amp;gt;&lt;br&gt;GetCourses(int id_language, int id_proglanguage): List&amp;lt;(string, string, int)&amp;gt;&lt;br&gt;GetExercises(int id_course): List&amp;lt;(string, string, int)&amp;gt;&lt;br&gt;ChangeStatus(long id_user, int id_exercise): void&lt;br&gt;SearchExercise(string Answer): List&amp;lt;int&amp;gt;&lt;br&gt;CheckStatus(long id_user, int id_exercise): string&lt;br&gt;StatusProcent(List&amp;lt;(int, int, List&amp;lt;int&amp;gt;, List&amp;lt;int&amp;gt;)&amp;gt; lst): List&amp;lt;(string, int, int)&amp;gt;&lt;br&gt;GetProgressStatus(long id_user, int id_language):List&amp;lt;(int,int, List&amp;lt;int&amp;gt;, List&amp;lt;int&amp;gt;)&amp;gt;&lt;br&gt;GetCompleted(long id_user, List&amp;lt;int&amp;gt; ids_exercise):&amp;nbsp;List&amp;lt;int&amp;gt;" style="text;html=1;align=left;verticalAlign=middle;resizable=0;points=[];autosize=1;strokeColor=none;fillColor=none;" vertex="1" parent="w7tnQ7XDSmEHpIKaVpb0-34">
          <mxGeometry x="10" y="35" width="460" height="270" as="geometry" />
        </mxCell>
        <mxCell id="w7tnQ7XDSmEHpIKaVpb0-37" value="Use" style="endArrow=open;endSize=12;dashed=1;html=1;rounded=0;exitX=0.5;exitY=1;exitDx=0;exitDy=0;entryX=0.5;entryY=0;entryDx=0;entryDy=0;" edge="1" parent="1" source="w7tnQ7XDSmEHpIKaVpb0-1" target="w7tnQ7XDSmEHpIKaVpb0-5">
          <mxGeometry width="160" relative="1" as="geometry">
            <mxPoint x="710" y="560" as="sourcePoint" />
            <mxPoint x="870" y="560" as="targetPoint" />
          </mxGeometry>
        </mxCell>
        <mxCell id="w7tnQ7XDSmEHpIKaVpb0-38" value="Use" style="endArrow=open;endSize=12;dashed=1;html=1;rounded=0;exitX=1;exitY=0.5;exitDx=0;exitDy=0;align=center;" edge="1" parent="1" source="w7tnQ7XDSmEHpIKaVpb0-1">
          <mxGeometry width="160" relative="1" as="geometry">
            <mxPoint x="830" y="630" as="sourcePoint" />
            <mxPoint x="960" y="310" as="targetPoint" />
          </mxGeometry>
        </mxCell>
        <mxCell id="w7tnQ7XDSmEHpIKaVpb0-39" value="Use" style="endArrow=open;endSize=12;dashed=1;html=1;rounded=0;exitX=0;exitY=0.75;exitDx=0;exitDy=0;entryX=0.999;entryY=0.769;entryDx=0;entryDy=0;entryPerimeter=0;" edge="1" parent="1" source="w7tnQ7XDSmEHpIKaVpb0-36" target="w7tnQ7XDSmEHpIKaVpb0-1">
          <mxGeometry width="160" relative="1" as="geometry">
            <mxPoint x="860" y="640" as="sourcePoint" />
            <mxPoint x="1020" y="640" as="targetPoint" />
          </mxGeometry>
        </mxCell>
      </root>
    </mxGraphModel>
  </diagram>
</mxfile>
